<svg width="90" height="20" viewBox="0 0 90 20" fill="none" xmlns="http://www.w3.org/2000/svg">
<path d="M10.0398 0C4.5798 0 0.129805 4.45 0.129805 9.91C0.129805 11.66 0.589805 13.36 1.4498 14.86L0.0498047 20L5.2998 18.62C6.7498 19.41 8.3798 19.83 10.0398 19.83C15.4998 19.83 19.9498 15.38 19.9498 9.92C19.9498 7.27 18.9198 4.78 17.0498 2.91C15.1798 1.03 12.6898 0 10.0398 0ZM10.0498 1.67C12.2498 1.67 14.3098 2.53 15.8698 4.09C17.4198 5.65 18.2798 7.72 18.2798 9.92C18.2798 14.46 14.5798 18.15 10.0398 18.15C8.5598 18.15 7.1098 17.76 5.8498 17L5.5498 16.83L2.4298 17.65L3.2598 14.61L3.0598 14.29C2.2398 13 1.7998 11.47 1.7998 9.91C1.8098 5.37 5.4998 1.67 10.0498 1.67ZM6.5298 5.33C6.3698 5.33 6.0998 5.39 5.8698 5.64C5.6498 5.89 4.9998 6.5 4.9998 7.71C4.9998 8.93 5.8898 10.1 5.9998 10.27C6.1398 10.44 7.7598 12.94 10.2498 14C10.8398 14.27 11.2998 14.42 11.6598 14.53C12.2498 14.72 12.7898 14.69 13.2198 14.63C13.6998 14.56 14.6798 14.03 14.8898 13.45C15.0998 12.87 15.0998 12.38 15.0398 12.27C14.9698 12.17 14.8098 12.11 14.5598 12C14.3098 11.86 13.0898 11.26 12.8698 11.18C12.6398 11.1 12.4998 11.06 12.3098 11.3C12.1498 11.55 11.6698 12.11 11.5298 12.27C11.3798 12.44 11.2398 12.46 10.9998 12.34C10.7398 12.21 9.9398 11.95 8.9998 11.11C8.2598 10.45 7.7698 9.64 7.6198 9.39C7.4998 9.15 7.6098 9 7.7298 8.89C7.8398 8.78 7.9998 8.6 8.0998 8.45C8.2298 8.31 8.2698 8.2 8.3498 8.04C8.4298 7.87 8.3898 7.73 8.3298 7.61C8.2698 7.5 7.7698 6.26 7.5598 5.77C7.3598 5.29 7.1598 5.35 6.9998 5.34C6.8598 5.34 6.6998 5.33 6.5298 5.33Z" fill="white"/>
<path d="M25.7729 13.667L27.897 4.33594H29.1201L29.6035 5.49316L27.3403 15H26L25.7729 13.667ZM24.9453 4.33594L26.7251 13.7109L26.4175 15H24.894L22.5796 4.33594H24.9453ZM31.1196 13.6597L32.8774 4.33594H35.2358L32.9214 15H31.4126L31.1196 13.6597ZM29.9185 4.33594L32.0718 13.7183L31.8228 15H30.4897L28.1899 5.48584L28.6953 4.33594H29.9185ZM38.4512 3.75V15H36.166V3.75H38.4512ZM38.1509 10.7593L37.5796 10.7739C37.5796 10.2173 37.6479 9.70703 37.7847 9.24316C37.9263 8.77441 38.1265 8.3667 38.3853 8.02002C38.644 7.67334 38.9541 7.40479 39.3154 7.21436C39.6816 7.02393 40.0845 6.92871 40.5239 6.92871C40.9146 6.92871 41.271 6.98486 41.5933 7.09717C41.9155 7.20947 42.1938 7.3877 42.4282 7.63184C42.6626 7.87598 42.8433 8.1958 42.9702 8.59131C43.0972 8.98682 43.1606 9.46777 43.1606 10.0342V15H40.8608V10.0195C40.8608 9.68262 40.812 9.41895 40.7144 9.22852C40.6216 9.03809 40.4849 8.90381 40.3042 8.82568C40.1284 8.74756 39.9136 8.7085 39.6597 8.7085C39.3618 8.7085 39.1152 8.76221 38.9199 8.86963C38.7246 8.97217 38.5708 9.11621 38.4585 9.30176C38.3462 9.4873 38.2656 9.70459 38.2168 9.95361C38.1729 10.2026 38.1509 10.4712 38.1509 10.7593ZM48.8516 13.1104V9.71191C48.8516 9.47266 48.8149 9.26758 48.7417 9.09668C48.6685 8.92578 48.5537 8.7915 48.3975 8.69385C48.2412 8.59619 48.0386 8.54736 47.7896 8.54736C47.5796 8.54736 47.3965 8.58398 47.2402 8.65723C47.0889 8.73047 46.9717 8.83545 46.8887 8.97217C46.8105 9.10889 46.7715 9.27734 46.7715 9.47754H44.4863C44.4863 9.12109 44.5669 8.78906 44.728 8.48145C44.8892 8.17383 45.1187 7.90283 45.4165 7.66846C45.7192 7.43408 46.0806 7.25342 46.5005 7.12646C46.9204 6.99463 47.3916 6.92871 47.9141 6.92871C48.5342 6.92871 49.0859 7.03369 49.5693 7.24365C50.0576 7.44873 50.4434 7.75879 50.7266 8.17383C51.0098 8.58398 51.1514 9.10156 51.1514 9.72656V13.0444C51.1514 13.5229 51.1782 13.8989 51.2319 14.1724C51.2905 14.4409 51.3735 14.6753 51.481 14.8755V15H49.1738C49.0664 14.7705 48.9858 14.4873 48.9321 14.1504C48.8784 13.8086 48.8516 13.4619 48.8516 13.1104ZM49.1372 10.166L49.1519 11.4258H48.0166C47.7627 11.4258 47.543 11.4575 47.3574 11.521C47.1768 11.5845 47.0303 11.6724 46.918 11.7847C46.8057 11.8921 46.7227 12.019 46.6689 12.1655C46.6201 12.3071 46.5957 12.4634 46.5957 12.6343C46.5957 12.7954 46.6348 12.9419 46.7129 13.0737C46.791 13.2007 46.8984 13.3008 47.0352 13.374C47.1719 13.4473 47.3306 13.4839 47.5112 13.4839C47.8091 13.4839 48.063 13.4253 48.2729 13.3081C48.4878 13.1909 48.6538 13.0493 48.771 12.8833C48.8882 12.7124 48.9468 12.5537 48.9468 12.4072L49.4961 13.3594C49.4082 13.5547 49.3008 13.7573 49.1738 13.9673C49.0469 14.1724 48.8857 14.3652 48.6904 14.5459C48.4951 14.7217 48.2583 14.8657 47.98 14.978C47.7065 15.0903 47.377 15.1465 46.9912 15.1465C46.4932 15.1465 46.0415 15.0464 45.6362 14.8462C45.231 14.6411 44.9062 14.3604 44.6621 14.0039C44.4229 13.6475 44.3032 13.2373 44.3032 12.7734C44.3032 12.3584 44.3789 11.9897 44.5303 11.6675C44.6816 11.3452 44.9087 11.0718 45.2114 10.8472C45.519 10.6226 45.9048 10.4541 46.3687 10.3418C46.8325 10.2246 47.3745 10.166 47.9946 10.166H49.1372ZM56.6812 7.0752V8.6792H51.979V7.0752H56.6812ZM53.0557 5.1123H55.3481V12.5171C55.3481 12.7368 55.375 12.9053 55.4287 13.0225C55.4824 13.1396 55.5703 13.2227 55.6924 13.2715C55.8145 13.3154 55.9707 13.3374 56.1611 13.3374C56.2979 13.3374 56.415 13.3325 56.5127 13.3228C56.6104 13.313 56.7007 13.3008 56.7837 13.2861V14.9414C56.5884 15.0049 56.3809 15.0537 56.1611 15.0879C55.9414 15.127 55.7021 15.1465 55.4434 15.1465C54.9502 15.1465 54.5229 15.0659 54.1616 14.9048C53.8052 14.7437 53.5317 14.4897 53.3413 14.1431C53.1509 13.7915 53.0557 13.335 53.0557 12.7734V5.1123ZM61.9985 12.7954C61.9985 12.6489 61.9521 12.5195 61.8594 12.4072C61.7715 12.2949 61.6104 12.1924 61.376 12.0996C61.1465 12.0068 60.8218 11.9141 60.4019 11.8213C60.0063 11.7383 59.6377 11.6309 59.2959 11.499C58.9541 11.3623 58.6562 11.1987 58.4023 11.0083C58.1484 10.813 57.9507 10.5835 57.8091 10.3198C57.6675 10.0513 57.5967 9.74609 57.5967 9.4043C57.5967 9.07227 57.6675 8.75732 57.8091 8.45947C57.9556 8.16162 58.1655 7.89795 58.439 7.66846C58.7173 7.43896 59.0542 7.2583 59.4497 7.12646C59.8501 6.99463 60.3042 6.92871 60.812 6.92871C61.5103 6.92871 62.1133 7.03857 62.6211 7.2583C63.1289 7.47314 63.5195 7.77588 63.793 8.1665C64.0664 8.55225 64.2031 8.99414 64.2031 9.49219H61.918C61.918 9.28711 61.8789 9.10889 61.8008 8.95752C61.7227 8.80615 61.603 8.68896 61.4419 8.60596C61.2808 8.51807 61.0684 8.47412 60.8047 8.47412C60.5996 8.47412 60.4189 8.51074 60.2627 8.58398C60.1113 8.65234 59.9917 8.74756 59.9038 8.86963C59.8208 8.9917 59.7793 9.1333 59.7793 9.29443C59.7793 9.40674 59.8037 9.50928 59.8525 9.60205C59.9062 9.68994 59.9868 9.77295 60.0942 9.85107C60.2065 9.92432 60.3506 9.99023 60.5264 10.0488C60.707 10.1074 60.9268 10.1636 61.1855 10.2173C61.7373 10.3198 62.2402 10.4639 62.6943 10.6494C63.1533 10.835 63.5195 11.0913 63.793 11.4185C64.0713 11.7456 64.2104 12.1777 64.2104 12.7148C64.2104 13.0664 64.1299 13.3887 63.9688 13.6816C63.8125 13.9746 63.5854 14.231 63.2876 14.4507C62.9897 14.6704 62.6333 14.8413 62.2183 14.9634C61.8032 15.0854 61.3345 15.1465 60.812 15.1465C60.0649 15.1465 59.4326 15.0122 58.915 14.7437C58.3975 14.4751 58.0068 14.1382 57.7432 13.7329C57.4844 13.3228 57.355 12.9028 57.355 12.4731H59.501C59.5107 12.7368 59.5767 12.9517 59.6987 13.1177C59.8257 13.2837 59.9893 13.4058 60.1895 13.4839C60.3896 13.5571 60.6143 13.5938 60.8633 13.5938C61.1123 13.5938 61.3198 13.5596 61.4858 13.4912C61.6519 13.4229 61.7788 13.3301 61.8667 13.2129C61.9546 13.0908 61.9985 12.9517 61.9985 12.7954ZM69.6816 13.1104V9.71191C69.6816 9.47266 69.645 9.26758 69.5718 9.09668C69.4985 8.92578 69.3838 8.7915 69.2275 8.69385C69.0713 8.59619 68.8687 8.54736 68.6196 8.54736C68.4097 8.54736 68.2266 8.58398 68.0703 8.65723C67.9189 8.73047 67.8018 8.83545 67.7188 8.97217C67.6406 9.10889 67.6016 9.27734 67.6016 9.47754H65.3164C65.3164 9.12109 65.397 8.78906 65.5581 8.48145C65.7192 8.17383 65.9487 7.90283 66.2466 7.66846C66.5493 7.43408 66.9106 7.25342 67.3306 7.12646C67.7505 6.99463 68.2217 6.92871 68.7441 6.92871C69.3643 6.92871 69.916 7.03369 70.3994 7.24365C70.8877 7.44873 71.2734 7.75879 71.5566 8.17383C71.8398 8.58398 71.9814 9.10156 71.9814 9.72656V13.0444C71.9814 13.5229 72.0083 13.8989 72.062 14.1724C72.1206 14.4409 72.2036 14.6753 72.311 14.8755V15H70.0039C69.8965 14.7705 69.8159 14.4873 69.7622 14.1504C69.7085 13.8086 69.6816 13.4619 69.6816 13.1104ZM69.9673 10.166L69.9819 11.4258H68.8467C68.5928 11.4258 68.373 11.4575 68.1875 11.521C68.0068 11.5845 67.8604 11.6724 67.748 11.7847C67.6357 11.8921 67.5527 12.019 67.499 12.1655C67.4502 12.3071 67.4258 12.4634 67.4258 12.6343C67.4258 12.7954 67.4648 12.9419 67.543 13.0737C67.6211 13.2007 67.7285 13.3008 67.8652 13.374C68.002 13.4473 68.1606 13.4839 68.3413 13.4839C68.6392 13.4839 68.8931 13.4253 69.103 13.3081C69.3179 13.1909 69.4839 13.0493 69.6011 12.8833C69.7183 12.7124 69.7769 12.5537 69.7769 12.4072L70.3262 13.3594C70.2383 13.5547 70.1309 13.7573 70.0039 13.9673C69.877 14.1724 69.7158 14.3652 69.5205 14.5459C69.3252 14.7217 69.0884 14.8657 68.8101 14.978C68.5366 15.0903 68.207 15.1465 67.8213 15.1465C67.3232 15.1465 66.8716 15.0464 66.4663 14.8462C66.061 14.6411 65.7363 14.3604 65.4922 14.0039C65.2529 13.6475 65.1333 13.2373 65.1333 12.7734C65.1333 12.3584 65.209 11.9897 65.3604 11.6675C65.5117 11.3452 65.7388 11.0718 66.0415 10.8472C66.3491 10.6226 66.7349 10.4541 67.1987 10.3418C67.6626 10.2246 68.2046 10.166 68.8247 10.166H69.9673ZM75.7754 8.59863V18.0469H73.4902V7.0752H75.6216L75.7754 8.59863ZM80.7192 10.9497V11.1035C80.7192 11.6797 80.6533 12.2144 80.5215 12.7075C80.3896 13.1958 80.1919 13.623 79.9282 13.9893C79.6694 14.3555 79.3496 14.6411 78.9688 14.8462C78.5879 15.0464 78.146 15.1465 77.6431 15.1465C77.1646 15.1465 76.7495 15.0464 76.3979 14.8462C76.0513 14.6411 75.7583 14.3579 75.519 13.9966C75.2847 13.6304 75.0942 13.2129 74.9478 12.7441C74.8062 12.2705 74.6963 11.7651 74.6182 11.228V10.9277C74.6963 10.3564 74.8086 9.82666 74.9551 9.33838C75.1016 8.8501 75.292 8.42773 75.5264 8.07129C75.7607 7.70996 76.0513 7.4292 76.3979 7.229C76.7446 7.02881 77.1572 6.92871 77.6357 6.92871C78.1338 6.92871 78.5757 7.02393 78.9614 7.21436C79.3472 7.40479 79.6694 7.67822 79.9282 8.03467C80.1919 8.38623 80.3896 8.80859 80.5215 9.30176C80.6533 9.79492 80.7192 10.3442 80.7192 10.9497ZM78.4268 11.1035V10.9497C78.4268 10.6274 78.4023 10.332 78.3535 10.0635C78.3047 9.79004 78.2266 9.55322 78.1191 9.35303C78.0117 9.14795 77.8701 8.98926 77.6943 8.87695C77.5186 8.76465 77.3037 8.7085 77.0498 8.7085C76.7764 8.7085 76.5444 8.75244 76.354 8.84033C76.1636 8.92822 76.0098 9.05762 75.8926 9.22852C75.7754 9.39453 75.6899 9.59961 75.6362 9.84375C75.5874 10.0879 75.5605 10.3662 75.5557 10.6787V11.4844C75.5605 11.8506 75.6118 12.1777 75.7095 12.4658C75.812 12.749 75.9707 12.9712 76.1855 13.1323C76.4053 13.2886 76.6982 13.3667 77.0645 13.3667C77.3232 13.3667 77.5381 13.3105 77.709 13.1982C77.8848 13.0811 78.0239 12.9175 78.1265 12.7075C78.2339 12.4976 78.3096 12.2559 78.3535 11.9824C78.4023 11.709 78.4268 11.416 78.4268 11.1035ZM84.2275 8.59863V18.0469H81.9424V7.0752H84.0737L84.2275 8.59863ZM89.1714 10.9497V11.1035C89.1714 11.6797 89.1055 12.2144 88.9736 12.7075C88.8418 13.1958 88.644 13.623 88.3804 13.9893C88.1216 14.3555 87.8018 14.6411 87.4209 14.8462C87.04 15.0464 86.5981 15.1465 86.0952 15.1465C85.6167 15.1465 85.2017 15.0464 84.8501 14.8462C84.5034 14.6411 84.2104 14.3579 83.9712 13.9966C83.7368 13.6304 83.5464 13.2129 83.3999 12.7441C83.2583 12.2705 83.1484 11.7651 83.0703 11.228V10.9277C83.1484 10.3564 83.2607 9.82666 83.4072 9.33838C83.5537 8.8501 83.7441 8.42773 83.9785 8.07129C84.2129 7.70996 84.5034 7.4292 84.8501 7.229C85.1968 7.02881 85.6094 6.92871 86.0879 6.92871C86.5859 6.92871 87.0278 7.02393 87.4136 7.21436C87.7993 7.40479 88.1216 7.67822 88.3804 8.03467C88.644 8.38623 88.8418 8.80859 88.9736 9.30176C89.1055 9.79492 89.1714 10.3442 89.1714 10.9497ZM86.8789 11.1035V10.9497C86.8789 10.6274 86.8545 10.332 86.8057 10.0635C86.7568 9.79004 86.6787 9.55322 86.5713 9.35303C86.4639 9.14795 86.3223 8.98926 86.1465 8.87695C85.9707 8.76465 85.7559 8.7085 85.502 8.7085C85.2285 8.7085 84.9966 8.75244 84.8062 8.84033C84.6157 8.92822 84.4619 9.05762 84.3447 9.22852C84.2275 9.39453 84.1421 9.59961 84.0884 9.84375C84.0396 10.0879 84.0127 10.3662 84.0078 10.6787V11.4844C84.0127 11.8506 84.064 12.1777 84.1616 12.4658C84.2642 12.749 84.4229 12.9712 84.6377 13.1323C84.8574 13.2886 85.1504 13.3667 85.5166 13.3667C85.7754 13.3667 85.9902 13.3105 86.1611 13.1982C86.3369 13.0811 86.4761 12.9175 86.5786 12.7075C86.686 12.4976 86.7617 12.2559 86.8057 11.9824C86.8545 11.709 86.8789 11.416 86.8789 11.1035Z" fill="white"/>
</svg>
